<svg version="1.2" xmlns="http://www.w3.org/2000/svg" viewBox="0 0 124 120" width="124" height="120">
	<title>30169b0b32059b65ab9bef7de5c19988b1e90417-svg</title>
	<style>
		.s0 { fill: #000000 } 
	</style>
	<g id="Layer">
		<path id="Layer" fill-rule="evenodd" class="s0" d="m90 8.3c7.1 4 17.7 14.6 21.7 21.7 5.9 10.4 7.6 17.3 7.6 30 0 12.7-1.7 19.6-7.6 30-4 7.1-14.6 17.7-21.7 21.7-10.4 5.9-17.3 7.6-30 7.6-9.3 0-12.7-0.4-18-2.2-9.8-3.4-16.8-7.8-24.1-15-7.2-7.3-11.6-14.3-15-24.1-3.2-9.3-3.2-26.7 0-36 7.4-21.4 25.3-37.2 46.4-41 12.8-2.3 28.9 0.6 40.7 7.3zm-14.3 12.7c-3.9 0-4.9 2.8-10.8 27.6-3.3 13.7-6.2 25.8-6.6 26.8-0.5 1.7-7.5-17.7-11.3-31.6-1.2-4.1-4-6.3-7-5.3-2 0.6-2.3 1.6-7.7 20.5l-1.9 6.5-11.1 1.2c-11.7 1.2-14.1 1.9-12.5 3.5 1.1 1.1 27.7 4.2 29.7 3.4 0.8-0.3 2.2-3.2 3.1-6.6 1-3.3 2-6 2.3-6 0.4 0 3.3 8 6.5 17.7 6.1 18.7 7.9 22 11.5 20.8 2.4-0.7 3.7-4.7 10.2-30.8 2.4-9.7 4.6-17.7 4.9-17.7 0.3 0 1.6 5 2.9 11.1 2 9 2.8 11.3 4.5 12 2.4 1.1 29.2-2.3 30.8-3.9 1.6-1.6-0.3-2.1-12.4-3.9l-11.4-1.6-4.5-20.1c-2.8-13.1-5-20.7-6.1-21.8-1-1-2.4-1.8-3.1-1.8z"/>
		<path id="Layer" fill-rule="evenodd" class="s0" d="m221.6 14.1c11.9-0.2 20 7.4 21.1 19.7 1.5 16.8-5.3 26.8-19.2 28-15.2 1.2-23.8-7.4-23.8-23.8-0.1-11.5 4.7-20 12.8-22.8 1.7-0.6 5.7-1.1 9.1-1.1zm-0.4 7.9c-4.3 0-5.5 0.5-8.1 3-3.5 3.6-4.5 7.7-3.9 16.2 0.4 5.5 0.8 6.4 4.1 9.4 5.9 5.4 14.1 4.4 17.9-2.2 4.1-7.1 3.1-18.3-2.2-23.6-2.4-2.3-3.7-2.8-7.8-2.8z"/>
		<path id="Layer" class="s0" d="m156 38v23h4.5 4.5v-9.5-9.4l10.3-0.3 10.2-0.3 0.3-3.8 0.3-3.7h-10.5-10.6v-5.5-5.5h11.5 11.5v-4-4h-16-16z"/>
		<path id="Layer" fill-rule="evenodd" class="s0" d="m257 14.8l14.8 0.4c16.7 0.4 18.1 0.9 21.3 7.5 1.7 3.5 1.9 4.8 0.9 8.2-0.6 2.2-2.2 4.9-3.6 6l-2.6 2.1 2.3 1.9c1.9 1.5 2.4 3.2 3 9.2 0.3 4.1 1 8.2 1.4 9.1 0.6 1.6 0.1 1.8-4.3 1.8-5.8 0-6.2-0.6-6.2-8.4 0-8.2-1.6-9.6-10.6-9.6h-7.4v18h-9zm16.7 8.2h-7.7v12h7.6c4.1 0 8.4-0.5 9.5-1 2.5-1.4 2.6-7.1 0.1-9.3-1.4-1.3-3.8-1.7-9.5-1.7z"/>
		<path id="Layer" class="s0" d="m310.2 33.4c0.3 20.1 0.6 21.1 7 25.9 3.7 2.7 13.6 3.4 19.1 1.3 9.2-3.5 10.7-7.7 10.7-29.9v-15.7h-5-5v17c0 16.8 0 17.1-2.5 19.5-3.3 3.4-9.3 3.4-12.3 0.2-2.1-2.2-2.2-3.2-2.2-19.5v-17.2h-5.1-5.1z"/>
		<path id="Layer" class="s0" d="m363 38v23h4.5 4.5l0.2-17.8 0.3-17.7 3.9 17.7 4 17.8h4.6 4.6l4.1-18.3 4.1-18.2 0.1 18.2 0.1 18.3h4.5 4.5v-23-23h-6.8-6.8l-3.9 17.5c-2.1 9.6-4.2 17.2-4.6 16.8-0.4-0.5-2.4-8.3-4.5-17.6l-3.8-16.7h-6.8-6.8z"/>
		<path id="Layer" class="s0" d="m157.7 77.7c-0.4 0.3-0.7 1.5-0.7 2.5 0 2.2 4.5 2.6 5.3 0.4 0.9-2.4-2.8-4.7-4.6-2.9z"/>
		<path id="Layer" class="s0" d="m306.7 77.6c-0.4 0.4-0.7 7-0.7 14.6v13.8h2.9 3l-0.2-14.3c-0.2-13.5-0.3-14.2-2.2-14.5-1.2-0.2-2.4 0-2.8 0.4z"/>
		<path id="Layer" class="s0" d="m349.4 78.5c-0.8 2 0.4 3.5 2.6 3.5 2.3 0 3.2-1.3 2.4-3.4-0.8-2-4.3-2.1-5-0.1z"/>
		<path id="Layer" class="s0" d="m196 82c0 1.6-0.4 3-1 3-0.5 0-1 1.1-1 2.5 0 1.4 0.5 2.5 1 2.5 0.6 0 1 3 1 6.9 0 6.1 0.3 7.2 2.2 8.5 5.2 3.7 9.4 0.3 4.7-3.7-1.6-1.4-1.9-2.7-1.7-7 0.3-4.4 0.6-5.2 2.3-5.2 1.3 0 2.1-0.8 2.3-2.3 0.3-1.8-0.1-2.2-2.2-2.2-2.2 0-2.6-0.4-2.6-3 0-2.5-0.4-3-2.5-3-2.1 0-2.5 0.5-2.5 3z"/>
		<path id="Layer" class="s0" d="m157 95.7v10.3h2.5 2.5v-10.5-10.5l-2.5 0.2c-2.5 0.2-2.5 0.3-2.5 10.5z"/>
		<path id="Layer" class="s0" d="m169 95.5v10.5h2.5c2.4 0 2.5-0.2 2.5-6.9 0-7.1 1.4-10.1 4.5-10.1 3.1 0 4.5 3 4.5 10.1 0 6.7 0.1 6.9 2.5 6.9 2.5 0 2.5-0.1 2.5-8.4 0-7.9-0.2-8.6-2.6-10.5-3-2.4-7.3-2.7-9.3-0.9-1.1 1-1.4 1-1.8 0-0.3-0.6-1.6-1.2-2.9-1.2-2.4 0-2.4 0.1-2.4 10.5z"/>
		<path id="Layer" fill-rule="evenodd" class="s0" d="m232 94.7v3.2l-8.7 0.3c-8.3 0.3-8.6 0.4-6.9 2 1.9 2 7.6 2.4 9.3 0.7 0.8-0.8 1.7-0.8 3.3 0.1 2.7 1.5 1.3 3.4-3.7 5.1-7.4 2.4-15.3-2.7-15.3-9.8 0-4.5 1.4-7 5.3-9.3 7.4-4.5 16.6-0.2 16.7 7.7zm-15.4-3.1c-0.9 0.8-1.6 1.7-1.6 2 0 0.2 2.7 0.4 6 0.4 5.8 0 6-0.1 5-2-1.3-2.5-7.1-2.7-9.4-0.4z"/>
		<path id="Layer" class="s0" d="m238 95.5v10.5h2.5c2.4 0 2.5-0.3 2.5-6 0-4.8 0.4-6.3 2.2-8 1.2-1.1 2.8-2 3.5-2 0.7 0 1.3-1.1 1.3-2.5q0-4.4-4.8-0.9c-2 1.4-2.2 1.4-2.2 0 0-1-0.9-1.6-2.5-1.6h-2.5z"/>
		<path id="Layer" class="s0" d="m253 85.7c0 0.2 2.3 4.9 5.1 10.5 4.6 9.3 5.3 10 6.5 8.4 1.4-2 9.4-17.1 9.4-17.9 0-0.3-1.1-0.7-2.4-0.9-2.1-0.4-2.7 0.2-4.7 4.4-1.2 2.6-2.6 4.8-3.1 4.8-0.4 0-1.8-2.1-3.1-4.7-1.9-3.7-3-4.7-5.1-4.8-1.4 0-2.6 0.1-2.6 0.2z"/>
		<path id="Layer" fill-rule="evenodd" class="s0" d="m292.3 86.1c1.6 0.9 2.2 0.9 2.5 0 0.2-0.6 1.5-1.1 2.8-1.1 2.4 0 2.4 0.1 2.4 10.5v10.5h-4.7c-2.7 0.1-6.5 0.1-8.7 0.1-5.8 0.1-9.1-3.6-9.1-10.2 0-4.5 0.4-5.4 3.3-8 3.5-3.1 7.7-3.8 11.5-1.8zm-3.8 2.9c-2.2 0-6.5 4.5-6.5 6.7 0 5.8 8.2 8.7 11.4 4.1 2.2-3.2 2-5.5-0.9-8.3-1.3-1.4-3.1-2.5-4-2.5z"/>
		<path id="Layer" class="s0" d="m320.5 86.2c-2.6 1.5-3.5 2.8-3.5 5.4 0 2.9 2.8 5.1 7.8 6.3 4.9 1.1 5.7 1.5 4.7 3-0.8 1.3-6 1.4-8.4 0.2-1.3-0.7-2-0.5-2.9 0.9-1 1.6-0.9 2.1 0.6 2.9 5 2.7 13.4 2 15.4-1.2 2.7-4.2-0.8-9.7-6.2-9.7-1.5 0-3.5-0.6-4.5-1.4-1.8-1.3-1.8-1.4 0.3-2.5 1.4-0.8 2.9-0.8 4.8-0.1 1.9 0.7 3 0.7 4-0.1 2.1-1.7 1.7-2.6-1.7-3.8-4-1.4-7.8-1.4-10.4 0.1z"/>
		<path id="Layer" class="s0" d="m349.7 85.7c-0.4 0.3-0.7 5.1-0.7 10.5v9.8h2.8 2.7l-0.3-10.5c-0.3-9.3-0.5-10.5-2.1-10.5-1 0-2.1 0.3-2.4 0.7z"/>
		<path id="Layer" class="s0" d="m365.8 86.6c-3.1 1.6-5.8 6.1-5.8 9.6 0 4.1 3.6 8.6 7.8 9.9 4.4 1.3 10 0 12.3-2.8 1.1-1.3 1-1.7-0.6-2.9-1.6-1.2-2.1-1.2-3.6 0.2-2.7 2.4-8 1.5-9.9-1.9-1.3-2.4-1.3-3 0-5.5 1.9-3.2 7.8-4.3 9.9-1.8 1 1.2 1.8 1.3 3.2 0.5 2.7-1.4 2.4-2.6-1.3-4.9-3.9-2.3-8.2-2.5-12-0.4z"/>
		<path id="Layer" class="s0" d="m387 94c0 10.2 1.4 12.4 7.8 12.2 2-0.1 5.4-0.1 7.5-0.1l3.7-0.1v-10.2-10.3h-2.5c-2.4 0-2.5 0.2-2.5 7.2 0 6.6-0.2 7.4-2.4 8.8-1.9 1.3-2.9 1.4-4.5 0.5-1.8-0.9-2.1-2-2.1-8.4 0-7.1-0.1-7.4-2.5-7.8l-2.5-0.5z"/>
		<path id="Layer" class="s0" d="m339.7 101.6c-1.2 1.2-0.8 4.2 0.6 4.7 2.1 0.8 3.9-0.8 3.5-2.9-0.3-1.9-2.9-3-4.1-1.8z"/>
	</g>
</svg>