<?xml version="1.0" standalone="no"?>
<!DOCTYPE svg PUBLIC "-//W3C//DTD SVG 20010904//EN"
 "http://www.w3.org/TR/2001/REC-SVG-20010904/DTD/svg10.dtd">
<svg version="1.0" xmlns="http://www.w3.org/2000/svg"
 width="670.000000pt" height="670.000000pt" viewBox="0 0 670.000000 670.000000"
 preserveAspectRatio="xMidYMid meet">

<g transform="translate(0.000000,670.000000) scale(0.100000,-0.100000)"
fill="#000000" stroke="none">
<path d="M3259 5546 c-7 -7 -60 -18 -209 -41 -227 -36 -283 -55 -580 -199 -53
-25 -101 -46 -108 -46 -6 0 -16 -9 -22 -20 -6 -11 -16 -20 -23 -20 -12 0 -64
-33 -182 -116 -56 -40 -265 -224 -265 -234 0 -4 -15 -22 -33 -41 -18 -19 -50
-56 -72 -84 -21 -27 -45 -57 -52 -65 -34 -38 -135 -184 -157 -229 -14 -27 -30
-52 -36 -56 -5 -3 -10 -13 -10 -21 0 -16 -23 -70 -75 -180 -19 -38 -38 -88
-44 -110 -11 -43 -56 -209 -71 -264 -37 -128 -51 -518 -26 -708 22 -165 32
-223 44 -257 6 -16 27 -82 47 -145 20 -63 43 -122 50 -130 8 -8 28 -53 44 -98
17 -46 41 -98 54 -115 13 -18 36 -59 52 -92 15 -33 35 -69 45 -80 9 -11 29
-42 44 -68 15 -26 36 -53 47 -60 10 -6 19 -16 19 -21 0 -23 234 -262 306 -313
30 -21 73 -53 96 -71 23 -19 63 -45 90 -58 26 -13 48 -28 48 -33 0 -5 26 -21
58 -36 84 -39 115 -56 137 -75 11 -10 45 -25 75 -35 30 -10 72 -27 94 -37 57
-29 115 -46 271 -80 255 -54 311 -60 546 -55 140 3 223 9 238 16 12 7 46 17
74 22 175 33 291 62 317 79 14 8 50 24 80 34 139 47 390 188 495 279 22 19 54
42 70 53 17 10 68 56 115 101 118 114 120 116 163 170 21 26 54 69 75 95 20
25 48 65 62 89 14 23 40 64 58 90 17 27 32 51 32 54 0 11 45 101 65 131 12 18
32 63 45 100 12 38 33 88 47 111 13 23 26 54 29 70 3 15 9 42 14 58 5 17 14
57 21 90 6 33 20 92 30 130 53 206 51 603 -5 807 -14 51 -35 131 -46 178 -12
47 -35 114 -50 150 -15 36 -34 83 -41 105 -8 22 -31 71 -52 108 -21 37 -42 79
-47 93 -6 13 -29 55 -53 92 -24 37 -50 78 -57 91 -47 90 -388 441 -427 441 -5
0 -24 16 -43 35 -19 19 -39 35 -46 35 -6 0 -17 7 -25 16 -7 8 -34 26 -59 39
-25 13 -52 30 -59 39 -7 8 -34 22 -60 31 -27 9 -73 31 -104 49 -30 18 -92 45
-136 60 -45 14 -94 32 -109 40 -38 20 -212 62 -308 75 -45 7 -96 16 -115 22
-39 12 -381 25 -390 15z m276 -192 c22 -4 49 -13 60 -20 11 -8 29 -14 41 -14
40 0 149 -58 191 -102 42 -44 118 -178 155 -278 12 -30 28 -67 37 -81 28 -47
101 -139 110 -139 4 0 29 -16 55 -36 41 -31 57 -36 136 -46 94 -12 167 -4 289
29 53 15 56 15 194 -23 127 -34 145 -42 196 -85 60 -50 125 -148 157 -234 12
-35 19 -89 22 -175 3 -109 1 -132 -17 -182 -12 -31 -33 -71 -46 -90 -13 -18
-33 -49 -44 -68 -11 -19 -38 -55 -60 -79 -68 -76 -111 -183 -118 -297 -5 -74
-3 -90 26 -169 38 -106 44 -117 85 -163 18 -21 41 -53 52 -72 10 -19 31 -48
45 -65 49 -56 62 -112 56 -238 -6 -114 -27 -219 -51 -247 -7 -8 -16 -26 -19
-40 -4 -14 -36 -62 -72 -107 -79 -100 -135 -132 -283 -163 -92 -18 -106 -19
-169 -6 -98 21 -222 30 -296 22 -109 -12 -220 -98 -273 -212 -18 -40 -37 -75
-42 -78 -5 -3 -22 -31 -38 -61 -15 -31 -37 -66 -49 -79 -11 -12 -38 -45 -59
-74 -21 -29 -44 -52 -51 -52 -8 0 -29 -18 -47 -41 -34 -43 -135 -99 -177 -99
-13 0 -42 -5 -65 -11 -22 -6 -56 -14 -75 -19 -25 -7 -46 -4 -85 11 -28 10 -61
19 -74 19 -47 0 -157 53 -215 104 -58 52 -130 166 -163 258 -24 68 -57 138
-65 138 -5 0 -20 20 -35 45 -14 25 -40 53 -58 61 -17 9 -42 26 -56 39 -14 12
-41 28 -59 35 -40 16 -206 19 -352 6 -147 -13 -275 13 -336 69 -21 19 -43 35
-50 35 -6 0 -26 16 -45 36 -18 21 -49 54 -69 75 -20 21 -44 60 -53 86 -9 26
-23 62 -31 78 -46 102 -54 172 -29 245 23 66 82 181 108 210 13 14 34 43 47
65 13 22 34 50 47 62 51 48 87 188 79 313 -8 109 -29 178 -71 229 -19 22 -44
58 -57 78 -12 21 -37 54 -54 73 -18 19 -47 71 -66 115 -42 101 -44 181 -6 295
33 98 64 167 81 177 7 4 23 26 35 49 50 91 180 166 370 215 97 25 135 24 228
-7 153 -51 291 -16 410 103 57 57 83 98 154 238 22 44 50 97 63 118 29 49 103
124 138 143 45 24 204 74 234 74 16 0 36 5 44 11 14 9 35 8 135 -7z"/>
</g>
</svg>
